<?xml version="1.0" encoding="UTF-8" standalone="no" ?>
<!DOCTYPE svg PUBLIC "-//W3C//DTD SVG 1.1//EN" "http://www.w3.org/Graphics/SVG/1.1/DTD/svg11.dtd">
<svg xmlns="http://www.w3.org/2000/svg" xmlns:xlink="http://www.w3.org/1999/xlink" version="1.1" width="1080" height="1080" viewBox="0 0 1080 1080" xml:space="preserve">
<desc>Created with Fabric.js 5.2.4</desc>
<defs>
</defs>
<rect x="0" y="0" width="100%" height="100%" fill="transparent"></rect>
<g transform="matrix(1 0 0 1 540 540)" id="eb7ae067-4e7d-45a7-b0e3-407e8dad8667"  >
<rect style="stroke: none; stroke-width: 1; stroke-dasharray: none; stroke-linecap: butt; stroke-dashoffset: 0; stroke-linejoin: miter; stroke-miterlimit: 4; fill: rgb(255,255,255); fill-rule: nonzero; opacity: 1; visibility: hidden;" vector-effect="non-scaling-stroke"  x="-540" y="-540" rx="0" ry="0" width="1080" height="1080" />
</g>
<g transform="matrix(1 0 0 1 540 540)" id="7c55f9b8-b6f2-4d2a-a0d7-423318bd85bf"  >
</g>
<g transform="matrix(1 0 0 1 487 530.77)"  >
<path style="stroke: none; stroke-width: 1; stroke-dasharray: none; stroke-linecap: butt; stroke-dashoffset: 0; stroke-linejoin: miter; stroke-miterlimit: 4; fill: rgb(60,82,217); fill-rule: nonzero; opacity: 1;" vector-effect="non-scaling-stroke"  transform=" translate(-28, -18.82)" d="M 55.27 23.196 C 56.243 24.186 56.243 25.790000000000003 55.27 26.779000000000003 L 45.083 37.141 C 44.77431477157262 37.457744001936575 44.350781960984236 37.63638226905224 43.9085 37.63638226905224 C 43.46621803901576 37.63638226905224 43.04268522842737 37.457744001936575 42.733999999999995 37.141 L 30.85 25.052 C 30.383000000000003 24.576999999999998 30.12 23.932 30.12 23.259999999999998 L 30.12 1.693 C 30.12 0.18800000000000017 31.909000000000002 -0.5659999999999998 32.955 0.4990000000000001 L 55.269 23.197 L 55.269999999999996 23.195999999999998 z M 10.301 36.504 C 10.764010265371871 36.97895959470995 11.399201332394847 37.24681691424589 12.0625 37.24681691424589 C 12.725798667605153 37.24681691424589 13.360989734628129 36.97895959470995 13.824 36.504 L 25.113999999999997 25.019 C 25.580999999999996 24.543999999999997 25.842999999999996 23.898999999999997 25.842999999999996 23.226999999999997 L 25.842999999999996 1.713 C 25.842999999999996 0.20800000000000018 24.053999999999995 -0.5459999999999998 23.007999999999996 0.518 L 0.73 23.183 C -0.243 24.173 -0.243 25.777 0.73 26.767 L 10.301 36.504 z" stroke-linecap="round" />
</g>
<g transform="matrix(0.71 -0.71 0.71 0.71 486.95 554.37)"  >
<rect style="stroke: none; stroke-width: 1; stroke-dasharray: none; stroke-linecap: butt; stroke-dashoffset: 0; stroke-linejoin: miter; stroke-miterlimit: 4; fill: rgb(46,242,255); fill-rule: nonzero; opacity: 1;" vector-effect="non-scaling-stroke"  x="-9.4835" y="-9.559" rx="3.099" ry="3.099" width="18.967" height="19.118" />
</g>
<g transform="matrix(1 0 0 1 576.48 540)" style="" id="2f6868fb-784d-4278-95e2-7d11a4e9668e"  >
		<text xml:space="preserve" font-family="Raleway" font-size="29" font-style="normal" font-weight="900" style="stroke: none; stroke-width: 1; stroke-dasharray: none; stroke-linecap: butt; stroke-dashoffset: 0; stroke-linejoin: miter; stroke-miterlimit: 4; fill: rgb(234,237,255); fill-rule: nonzero; opacity: 1; white-space: pre;" ><tspan x="-53.78" y="9.11" >K</tspan><tspan x="-33.77" y="9.11" style="white-space: pre; "> </tspan><tspan x="-26.52" y="9.11" >R</tspan><tspan x="-6.22" y="9.11" >A</tspan><tspan x="13.01" y="9.11" >C</tspan><tspan x="33.77" y="9.11" >K</tspan></text>
</g>
</svg>